<?xml version="1.0" encoding="UTF-8" standalone="no"?>
<svg
   xmlns:dc="http://purl.org/dc/elements/1.1/"
   xmlns:cc="http://creativecommons.org/ns#"
   xmlns:rdf="http://www.w3.org/1999/02/22-rdf-syntax-ns#"
   xmlns:svg="http://www.w3.org/2000/svg"
   xmlns="http://www.w3.org/2000/svg"
   width="7.534421mm"
   height="44.751789mm"
   viewBox="0 0 7.5344209 44.751789"
   version="1.1"
   id="svg883">
  <defs
     id="defs877" />
  <metadata
     id="metadata880">
    <rdf:RDF>
      <cc:Work
         rdf:about="">
        <dc:format>image/svg+xml</dc:format>
        <dc:type
           rdf:resource="http://purl.org/dc/dcmitype/StillImage" />
        <dc:title></dc:title>
      </cc:Work>
    </rdf:RDF>
  </metadata>
  <g
     id="layer1"
     transform="translate(-95.944679,-155.7338)">
    <g
       aria-label="PLUMPPU"
       transform="rotate(-90)"
       id="text1477"
       style="font-style:normal;font-variant:normal;font-weight:normal;font-stretch:normal;font-size:10.5833px;line-height:1.25;font-family:'Segoe UI';-inkscape-font-specification:'Segoe UI, Normal';font-variant-ligatures:normal;font-variant-caps:normal;font-variant-numeric:normal;font-variant-east-asian:normal;stroke-width:0.264583;fill:#08151d;fill-opacity:1">
      <path
         d="m -199.61743,100.55422 v 2.80086 h -0.86816 v -7.410401 h 2.03605 q 1.18856,0 1.83968,0.578777 0.65629,0.578776 0.65629,1.632975 0,1.054199 -0.72864,1.725993 -0.72347,0.671796 -1.95853,0.671796 z m 0,-3.824059 v 3.038574 h 0.90951 q 0.89917,0 1.36942,-0.408243 0.47543,-0.413412 0.47543,-1.16272 0,-1.467611 -1.73633,-1.467611 z"
         style="font-style:normal;font-variant:normal;font-weight:normal;font-stretch:normal;font-size:10.5833px;font-family:'Segoe UI';-inkscape-font-specification:'Segoe UI, Normal';font-variant-ligatures:normal;font-variant-caps:normal;font-variant-numeric:normal;font-variant-east-asian:normal;stroke-width:0.264583;fill:#08151d;fill-opacity:1"
         id="path1479" />
      <path
         d="m -190.71358,103.35508 h -3.84472 v -7.410401 h 0.86816 v 6.624921 h 2.97656 z"
         style="font-style:normal;font-variant:normal;font-weight:normal;font-stretch:normal;font-size:10.5833px;font-family:'Segoe UI';-inkscape-font-specification:'Segoe UI, Normal';font-variant-ligatures:normal;font-variant-caps:normal;font-variant-numeric:normal;font-variant-east-asian:normal;stroke-width:0.264583;fill:#08151d;fill-opacity:1"
         id="path1481" />
      <path
         d="m -184.36254,100.35785 q 0,3.12125 -2.81637,3.12125 -2.69751,0 -2.69751,-3.0024 v -4.532021 h 0.86816 v 4.475181 q 0,2.27893 1.92237,2.27893 1.85518,0 1.85518,-2.20142 v -4.552691 h 0.86817 z"
         style="font-style:normal;font-variant:normal;font-weight:normal;font-stretch:normal;font-size:10.5833px;font-family:'Segoe UI';-inkscape-font-specification:'Segoe UI, Normal';font-variant-ligatures:normal;font-variant-caps:normal;font-variant-numeric:normal;font-variant-east-asian:normal;stroke-width:0.264583;fill:#08151d;fill-opacity:1"
         id="path1483" />
      <path
         d="m -174.95743,103.35508 h -0.863 v -4.971273 q 0,-0.589111 0.0724,-1.441772 h -0.0207 q -0.12403,0.501261 -0.22221,0.718302 l -2.53215,5.694743 h -0.42374 l -2.52698,-5.653402 q -0.10852,-0.248047 -0.22221,-0.759643 h -0.0207 q 0.0413,0.444417 0.0413,1.452107 v 4.960938 h -0.83716 v -7.410401 h 1.14722 l 2.27376,5.167641 q 0.26355,0.59428 0.34107,0.88884 h 0.031 q 0.22221,-0.60978 0.35657,-0.90951 l 2.32027,-5.146971 h 1.08521 z"
         style="font-style:normal;font-variant:normal;font-weight:normal;font-stretch:normal;font-size:10.5833px;font-family:'Segoe UI';-inkscape-font-specification:'Segoe UI, Normal';font-variant-ligatures:normal;font-variant-caps:normal;font-variant-numeric:normal;font-variant-east-asian:normal;stroke-width:0.264583;fill:#08151d;fill-opacity:1"
         id="path1485" />
      <path
         d="m -172.14107,100.55422 v 2.80086 h -0.86816 v -7.410401 h 2.03605 q 1.18856,0 1.83968,0.578777 0.65629,0.578776 0.65629,1.632975 0,1.054199 -0.72864,1.725993 -0.72347,0.671796 -1.95853,0.671796 z m 0,-3.824059 v 3.038574 h 0.90951 q 0.89917,0 1.36942,-0.408243 0.47543,-0.413412 0.47543,-1.16272 0,-1.467611 -1.73633,-1.467611 z"
         style="font-style:normal;font-variant:normal;font-weight:normal;font-stretch:normal;font-size:10.5833px;font-family:'Segoe UI';-inkscape-font-specification:'Segoe UI, Normal';font-variant-ligatures:normal;font-variant-caps:normal;font-variant-numeric:normal;font-variant-east-asian:normal;stroke-width:0.264583;fill:#08151d;fill-opacity:1"
         id="path1487" />
      <path
         d="m -166.21378,100.55422 v 2.80086 h -0.86817 v -7.410401 h 2.03606 q 1.18855,0 1.83968,0.578777 0.65629,0.578776 0.65629,1.632975 0,1.054199 -0.72864,1.725993 -0.72347,0.671796 -1.95854,0.671796 z m 0,-3.824059 v 3.038574 h 0.9095 q 0.89917,0 1.36943,-0.408243 0.47542,-0.413412 0.47542,-1.16272 0,-1.467611 -1.73633,-1.467611 z"
         style="font-style:normal;font-variant:normal;font-weight:normal;font-stretch:normal;font-size:10.5833px;font-family:'Segoe UI';-inkscape-font-specification:'Segoe UI, Normal';font-variant-ligatures:normal;font-variant-caps:normal;font-variant-numeric:normal;font-variant-east-asian:normal;stroke-width:0.264583;fill:#08151d;fill-opacity:1"
         id="path1489" />
      <path
         d="m -155.7338,100.35785 q 0,3.12125 -2.81637,3.12125 -2.69751,0 -2.69751,-3.0024 v -4.532021 h 0.86817 v 4.475181 q 0,2.27893 1.92236,2.27893 1.85519,0 1.85519,-2.20142 v -4.552691 h 0.86816 z"
         style="font-style:normal;font-variant:normal;font-weight:normal;font-stretch:normal;font-size:10.5833px;font-family:'Segoe UI';-inkscape-font-specification:'Segoe UI, Normal';font-variant-ligatures:normal;font-variant-caps:normal;font-variant-numeric:normal;font-variant-east-asian:normal;stroke-width:0.264583;fill:#08151d;fill-opacity:1"
         id="path1491" />
    </g>
  </g>
</svg>
